<svg viewBox="0 0 512 512" xmlns="http://www.w3.org/2000/svg">
  <defs>
    <linearGradient id="bg" x1="0" y1="0" x2="1" y2="1">
      <stop offset="0" stop-color="#161033"/>
      <stop offset="1" stop-color="#0b0f1f"/>
    </linearGradient>
    <linearGradient id="mark" x1="120" y1="120" x2="392" y2="392" gradientUnits="userSpaceOnUse">
      <stop stop-color="#a5b4fc"/>
      <stop offset="0.5" stop-color="#7c3aed"/>
      <stop offset="1" stop-color="#38bdf8"/>
    </linearGradient>
  </defs>
  <rect width="512" height="512" fill="url(#bg)"/>
  <g transform="translate(140 140) scale(7.25)">
    <path d="M27 17.6A11 11 0 1 1 14.4 5 8.6 8.6 0 0 0 27 17.6Z" fill="url(#mark)"/>
    <path d="M19.7 11.6 23 14.9l-5.1 6.2a1 1 0 0 1-.8.4l-2.2-.1.0-2.2a1 1 0 0 1 .3-.7Z"
      fill="#0b0f1f" stroke="#e8ecff" stroke-width="1.4" stroke-linejoin="round"/>
    <path d="M17.4 14.2 20 16.8" stroke="#e8ecff" stroke-width="1.2" stroke-linecap="round"/>
    <circle cx="15.2" cy="21.6" r="1" fill="#e8ecff"/>
    <path d="M24.5 5.2 25.2 7l1.8.7-1.8.7-.7 1.8-.7-1.8L22 7.7l1.8-.7Z" fill="#a5b4fc"/>
  </g>
</svg>
